<?xml version="1.0" encoding="UTF-8"?>
<svg version="1.1" xmlns="http://www.w3.org/2000/svg" width="500" height="500">
<path d="M0 0 C165 0 330 0 500 0 C500 165 500 330 500 500 C335 500 170 500 0 500 C0 335 0 170 0 0 Z " fill="#FEFEFE" transform="translate(0,0)"/>
<path d="M0 0 C25.08 0 50.16 0 76 0 C76 21.92077871 68.41251276 40.318345 53 56 C38.54821281 70.09406968 19.70023348 76 0 76 C0 50.92 0 25.84 0 0 Z " fill="#3356F1" transform="translate(250,180)"/>
<path d="M0 0 C0 25.08 0 50.16 0 76 C-25.08 76 -50.16 76 -76 76 C-76 55.05587086 -70.50277415 38.53040535 -55.7109375 23.64453125 C-54.81632812 22.77183594 -53.92171875 21.89914063 -53 21 C-52.27039063 20.26136719 -51.54078125 19.52273437 -50.7890625 18.76171875 C-36.6106461 5.18944283 -19.3059616 0 0 0 Z " fill="#3355F1" transform="translate(250,104)"/>
<path d="M0 0 C5.85541461 4.4836472 9.35151427 10.5071024 10.53125 17.77734375 C10.92098749 25.9723644 8.80927314 32.40507458 3.4765625 38.6640625 C-1.64123758 43.5194113 -7.53023053 45.45008608 -14.44921875 46.19140625 C-22.97209076 45.27824139 -29.28006307 42.36856813 -34.94921875 35.81640625 C-39.59076499 29.12211983 -39.91240532 21.73259587 -38.94921875 13.81640625 C-37.17779466 7.11820889 -32.53538187 2.66963555 -26.94921875 -1.18359375 C-18.12677571 -6.00516146 -8.48695448 -5.15340122 0 0 Z " fill="#3456F1" transform="translate(300.94921875,121.18359375)"/>
<path d="M0 0 C5.89649164 5.12522058 8.48218304 11.11637277 9.5 18.75 C9.2054668 25.22973047 6.46167874 32.01207165 2.35546875 36.99609375 C-3.8183263 42.58456286 -10.12646558 44.51016407 -18.3671875 44.20703125 C-26.66796373 43.55429959 -31.54665372 40.1060634 -37 34 C-41.17716575 27.87944698 -42.15755067 21.26286218 -41 14 C-38.66439687 6.62724358 -34.43546772 1.25311258 -28 -3 C-18.39114656 -7.16987979 -8.48934268 -5.89785912 0 0 Z " fill="#3456F1" transform="translate(230,196)"/>
<path d="M0 0 C2.41534564 1.08453755 3.9518276 2.27522324 6 4 C6.33 2.68 6.66 1.36 7 0 C10.63 0 14.26 0 18 0 C18.09933715 5.83491118 18.17168936 11.66932337 18.21972656 17.50488281 C18.23976497 19.48739199 18.26700353 21.46984263 18.30175781 23.45214844 C18.35061954 26.31199641 18.37304673 29.17105881 18.390625 32.03125 C18.41127014 32.90865845 18.43191528 33.78606689 18.45318604 34.69006348 C18.45560879 41.42822075 16.90667564 46.82908112 12.28125 51.875 C6.37386428 55.60598045 0.85532227 55.85927593 -6 55 C-11.10626775 53.78377986 -14.7513983 51.10852567 -18 47 C-18.8125 43.6875 -18.8125 43.6875 -19 41 C-17.22992286 40.91885894 -15.45877902 40.86074495 -13.6875 40.8125 C-12.70136719 40.77769531 -11.71523438 40.74289062 -10.69921875 40.70703125 C-7.53696433 41.05025713 -7.07314188 41.74683739 -5 44 C-2.27449733 44.60994112 0.25819003 44.50266516 3 44 C5.18547684 42.55851025 5.18547684 42.55851025 6 40 C6.25063732 36.33285151 6.25063732 36.33285151 6 33 C5.4225 33.66 4.845 34.32 4.25 35 C-0.69438828 38.04270048 -5.34673774 37.98089716 -11 37 C-15.30640329 34.86565301 -17.47757651 31.85947091 -19.9375 27.8125 C-21.76189998 21.26612361 -22.20233366 14.85904815 -19.3125 8.5625 C-14.77998666 0.69108893 -8.56473923 -1.00838673 0 0 Z " fill="#060606" transform="translate(438,298)"/>
<path d="M0 0 C3.96 0 7.92 0 12 0 C12.33 0.99 12.66 1.98 13 3 C13.474375 2.505 13.94875 2.01 14.4375 1.5 C18.23523579 -0.72306485 21.69755174 -0.56867142 26 0 C29.3125 1.375 29.3125 1.375 32 3 C32.78375 3.391875 33.5675 3.78375 34.375 4.1875 C34.91125 4.455625 35.4475 4.72375 36 5 C36.763125 4.360625 37.52625 3.72125 38.3125 3.0625 C42.90649133 -0.46312125 47.40105554 -0.66995917 53 0 C57.40735869 2.04044384 59.58371094 4.17702044 61.41113281 8.68383789 C62.71558038 13.81455681 62.29930109 19.18284874 62.1875 24.4375 C62.16719727 26.25024414 62.16719727 26.25024414 62.14648438 28.09960938 C62.11130267 31.06659945 62.05750131 34.03335855 62 37 C58.37 37 54.74 37 51 37 C50.95101562 35.29070312 50.90203125 33.58140625 50.8515625 31.8203125 C50.77654442 29.58852471 50.70099619 27.3567547 50.625 25.125 C50.5940625 23.99707031 50.563125 22.86914062 50.53125 21.70703125 C50.47324219 20.09248047 50.47324219 20.09248047 50.4140625 18.4453125 C50.3826416 17.45031738 50.3512207 16.45532227 50.31884766 15.43017578 C50.22752917 12.82145483 50.22752917 12.82145483 48 11 C46.08993694 10.6823754 46.08993694 10.6823754 44 10.75 C43.29875 10.74484375 42.5975 10.7396875 41.875 10.734375 C39.7564331 10.84294485 39.7564331 10.84294485 38 13 C37.62864085 15.52037964 37.62864085 15.52037964 37.5859375 18.4453125 C37.54726562 19.52167969 37.50859375 20.59804688 37.46875 21.70703125 C37.4378125 22.83496094 37.406875 23.96289062 37.375 25.125 C37.33632812 26.26066406 37.29765625 27.39632813 37.2578125 28.56640625 C37.16332767 31.37732987 37.08056679 34.18864304 37 37 C33.37 37 29.74 37 26 37 C25.96261719 35.37449219 25.92523438 33.74898438 25.88671875 32.07421875 C25.82106894 29.94528904 25.75462126 27.81638383 25.6875 25.6875 C25.66494141 24.61564453 25.64238281 23.54378906 25.61914062 22.43945312 C25.5659668 20.89741211 25.5659668 20.89741211 25.51171875 19.32421875 C25.48553467 18.37635498 25.45935059 17.42849121 25.43237305 16.4519043 C24.92826617 13.59321128 24.35993548 12.65655543 22 11 C18.45800359 10.58326793 18.45800359 10.58326793 15 11 C12.39911378 13.60088622 12.70037775 14.82137113 12.5859375 18.4453125 C12.52792969 20.05986328 12.52792969 20.05986328 12.46875 21.70703125 C12.4378125 22.83496094 12.406875 23.96289062 12.375 25.125 C12.31699219 26.82849609 12.31699219 26.82849609 12.2578125 28.56640625 C12.16332767 31.37732987 12.08056679 34.18864304 12 37 C8.04 37 4.08 37 0 37 C0 24.79 0 12.58 0 0 Z " fill="#070707" transform="translate(161,298)"/>
<path d="M0 0 C3.5625 1.5 3.5625 1.5 6 3 C6.33 2.01 6.66 1.02 7 0 C10.96 0 14.92 0 19 0 C19 12.21 19 24.42 19 37 C15.04 37 11.08 37 7 37 C6.67 36.01 6.34 35.02 6 34 C5.401875 34.495 4.80375 34.99 4.1875 35.5 C-0.54882326 37.728858 -4.8601171 37.89837495 -10 37 C-14.5100857 34.70425241 -17.86057529 30.92967323 -19.55859375 26.11328125 C-20.89501127 19.71503454 -21.22827294 13.28710008 -17.875 7.5 C-13.04209528 1.02012775 -7.93311047 -1.23026847 0 0 Z " fill="#080808" transform="translate(327,298)"/>
<path d="M0 0 C3.625 1.5 3.625 1.5 6 3 C6.33 2.01 6.66 1.02 7 0 C10.63 0 14.26 0 18 0 C18 12.21 18 24.42 18 37 C14.37 37 10.74 37 7 37 C6.67 36.01 6.34 35.02 6 34 C5.401875 34.495 4.80375 34.99 4.1875 35.5 C-0.52841115 37.71925231 -4.8740407 37.66335944 -10 37 C-14.20061459 35.09062973 -17.15106636 32.55308603 -19.3046875 28.390625 C-20.9300868 22.80217347 -20.83867786 16.71657628 -20 11 C-15.08457069 2.35172374 -9.95849939 -1.54695136 0 0 Z " fill="#040404" transform="translate(137,298)"/>
<path d="M0 0 C4.54613981 1.97318114 7.11939659 4.79133816 9.79296875 8.8984375 C10.60546875 11.38671875 10.60546875 11.38671875 10.60546875 20.38671875 C2.35546875 20.38671875 -5.89453125 20.38671875 -14.39453125 20.38671875 C-12.94164139 24.97091505 -12.94164139 24.97091505 -11.39453125 26.38671875 C-7.93631723 26.63675839 -7.93631723 26.63675839 -4.39453125 26.38671875 C-3.73453125 25.72671875 -3.07453125 25.06671875 -2.39453125 24.38671875 C0.42578125 24.19140625 0.42578125 24.19140625 3.73046875 24.26171875 C4.82617188 24.27976562 5.921875 24.2978125 7.05078125 24.31640625 C7.89382812 24.33960938 8.736875 24.3628125 9.60546875 24.38671875 C8.28318446 30.07254118 6.20291573 32.10282805 1.60546875 35.38671875 C-4.65201954 37.47254818 -11.99909528 37.52139895 -17.95703125 34.69921875 C-23.50538329 29.43539758 -26.02514715 25.20368782 -26.76953125 17.51171875 C-26.60613331 12.17064864 -24.58381723 7.64302369 -20.86328125 3.80859375 C-14.64739097 -1.49319502 -7.89675154 -2.02249591 0 0 Z " fill="#050505" transform="translate(104.39453125,298.61328125)"/>
<path d="M0 0 C4.99517178 2.26968699 8.17972554 5.30476357 10.66015625 10.265625 C10.66015625 13.565625 10.66015625 16.865625 10.66015625 20.265625 C2.41015625 20.265625 -5.83984375 20.265625 -14.33984375 20.265625 C-13.34984375 22.245625 -12.35984375 24.225625 -11.33984375 26.265625 C-7.92328351 26.43239782 -7.92328351 26.43239782 -4.33984375 26.265625 C-3.67984375 25.605625 -3.01984375 24.945625 -2.33984375 24.265625 C0.48046875 24.0703125 0.48046875 24.0703125 3.78515625 24.140625 C4.88085938 24.15867187 5.9765625 24.17671875 7.10546875 24.1953125 C7.94851563 24.21851563 8.7915625 24.24171875 9.66015625 24.265625 C9.16143369 28.22844752 8.40510419 30.01440091 5.28515625 32.515625 C4.67929687 33.01578125 4.0734375 33.5159375 3.44921875 34.03125 C-1.65859373 37.55541756 -8.42387542 36.78290795 -14.33984375 36.265625 C-19.31205175 33.9976003 -21.64187355 30.96209164 -24.33984375 26.265625 C-26.13400665 20.88313629 -26.27771328 14.58102364 -24.7265625 9.09765625 C-19.92511275 -0.48409148 -9.72352337 -3.05179031 0 0 Z " fill="#040404" transform="translate(294.33984375,298.734375)"/>
<path d="M0 0 C3.96 0 7.92 0 12 0 C12.33 0.99 12.66 1.98 13 3 C13.61875 2.505 14.2375 2.01 14.875 1.5 C19.30645376 -0.62709781 23.17280067 -0.93987526 28 0 C32.24517106 2.40248692 35.16739877 5.47501098 37 10 C37.22705078 12.93261719 37.22705078 12.93261719 37.1953125 16.296875 C37.18886719 17.50214844 37.18242187 18.70742188 37.17578125 19.94921875 C37.15902344 21.20347656 37.14226562 22.45773437 37.125 23.75 C37.11597656 25.01972656 37.10695313 26.28945313 37.09765625 27.59765625 C37.07409005 30.73196093 37.04118832 33.86588541 37 37 C33.37 37 29.74 37 26 37 C25.97421875 35.38609375 25.9484375 33.7721875 25.921875 32.109375 C25.86559662 29.98955619 25.80824923 27.86976557 25.75 25.75 C25.73582031 24.68652344 25.72164063 23.62304688 25.70703125 22.52734375 C25.67480469 21.50253906 25.64257812 20.47773438 25.609375 19.421875 C25.58842773 18.47924805 25.56748047 17.53662109 25.54589844 16.56542969 C24.84195403 13.25726874 23.67755975 12.01920207 21 10 C17.33635192 9.9872962 17.33635192 9.9872962 14 11 C12.71394339 13.57211322 12.78956059 15.56906966 12.68359375 18.4453125 C12.64169922 19.52167969 12.59980469 20.59804688 12.55664062 21.70703125 C12.49766602 23.39892578 12.49766602 23.39892578 12.4375 25.125 C12.39431641 26.26066406 12.35113281 27.39632813 12.30664062 28.56640625 C12.20034055 31.37745261 12.09964603 34.1887099 12 37 C8.04 37 4.08 37 0 37 C0 24.79 0 12.58 0 0 Z " fill="#090909" transform="translate(377,298)"/>
<path d="M0 0 C3.96 0 7.92 0 12 0 C13.33819498 2.6226232 14.6707151 5.24786599 16 7.875 C16.3815625 8.62136719 16.763125 9.36773437 17.15625 10.13671875 C17.5171875 10.85214844 17.878125 11.56757813 18.25 12.3046875 C18.58515625 12.96452637 18.9203125 13.62436523 19.265625 14.30419922 C20 16 20 16 20 18 C20.66 18 21.32 18 22 18 C22.17015625 17.45472656 22.3403125 16.90945313 22.515625 16.34765625 C24.32875234 10.70574406 26.52205144 5.38312963 29 0 C33.29 0 37.58 0 42 0 C40.52227164 3.69432089 38.98634529 7.15600967 37.21484375 10.703125 C36.68439453 11.7653125 36.15394531 12.8275 35.60742188 13.921875 C35.05634766 15.02015625 34.50527344 16.1184375 33.9375 17.25 C33.38255859 18.36375 32.82761719 19.4775 32.25585938 20.625 C31.72669922 21.68203125 31.19753906 22.7390625 30.65234375 23.828125 C30.16757568 24.7965332 29.68280762 25.76494141 29.18334961 26.76269531 C28 29 28 29 27 30 C26.76321284 32.69235776 26.57801975 35.36498156 26.4375 38.0625 C26.39431641 38.82111328 26.35113281 39.57972656 26.30664062 40.36132812 C26.20026367 42.24065438 26.09960066 44.12030244 26 46 C22.37 46 18.74 46 15 46 C15.09023437 45.08605469 15.18046875 44.17210937 15.2734375 43.23046875 C15.90766591 28.45010693 8.38056654 16.84621298 1.26928711 4.43579102 C0 2 0 2 0 0 Z " fill="#050505" transform="translate(226,289)"/>
<path d="M0 0 C11.88 0 23.76 0 36 0 C36 2.97 36 5.94 36 9 C32.04 9 28.08 9 24 9 C24 21.21 24 33.42 24 46 C20.37 46 16.74 46 13 46 C13 33.79 13 21.58 13 9 C8.71 9 4.42 9 0 9 C0 6.03 0 3.06 0 0 Z " fill="#030303" transform="translate(41,289)"/>
<path d="M0 0 C3.96 0 7.92 0 12 0 C12.33 1.32 12.66 2.64 13 4 C14.36125 3.01 14.36125 3.01 15.75 2 C19 0 19 0 23 0 C23 3.96 23 7.92 23 12 C21.72125 12.12375 20.4425 12.2475 19.125 12.375 C15.65209064 12.69042399 15.65209064 12.69042399 13 15 C12.62948007 17.3245339 12.62948007 17.3245339 12.5859375 20.0078125 C12.52792969 21.48701172 12.52792969 21.48701172 12.46875 22.99609375 C12.42234375 24.54490234 12.42234375 24.54490234 12.375 26.125 C12.31699219 27.68541016 12.31699219 27.68541016 12.2578125 29.27734375 C12.16335671 31.85126402 12.08058229 34.42560805 12 37 C8.04 37 4.08 37 0 37 C0 24.79 0 12.58 0 0 Z " fill="#0D0D0D" transform="translate(351,298)"/>
<path d="M0 0 C1.90625 0.40625 1.90625 0.40625 4.40625 1.84375 C6.6495582 5.67606818 6.78195114 9.08151542 5.90625 13.40625 C3.84375 16.53125 3.84375 16.53125 0.90625 18.40625 C-2.588312 18.40625 -4.93992103 18.30640026 -7.74609375 16.1171875 C-10.22671872 12.96787232 -10.2987596 9.30826604 -10.09375 5.40625 C-7.79046458 0.49925063 -5.12859934 -0.38273129 0 0 Z " fill="#F4F4F4" transform="translate(328.09375,307.59375)"/>
<path d="M0 0 C3.28573474 2.16166759 3.90007665 3.63361438 4.9375 7.4375 C5.00754154 11.42986787 4.46465254 12.91918433 2 16 C-1 18 -1 18 -4.5 17.875 C-8 17 -8 17 -9.9375 15.5 C-11.56727143 11.66524369 -11.66150072 8.09679423 -11 4 C-8.21093968 -0.57405892 -5.10245628 -0.72892233 0 0 Z " fill="#F5F5F5" transform="translate(440,308)"/>
<path d="M0 0 C1.90625 0.41015625 1.90625 0.41015625 4.40625 1.91015625 C6.52696503 5.44468131 6.46088081 8.38701339 5.90625 12.41015625 C4.73611774 15.83054285 4.03314277 16.32556107 0.90625 18.41015625 C-3.23769921 18.33481172 -5.375258 18.03653389 -8.53125 15.28515625 C-10.51589753 11.63340479 -10.68014648 9.51493158 -10.09375 5.41015625 C-7.62840011 0.58217939 -5.16353434 -0.37570492 0 0 Z " fill="#F6F6F6" transform="translate(138.09375,307.58984375)"/>
<path d="M0 0 C3.77190501 0.25572237 5.15444488 0.51430047 7.6875 3.25 C7.6875 4.24 7.6875 5.23 7.6875 6.25 C3.0675 6.25 -1.5525 6.25 -6.3125 6.25 C-3.93117704 0.29669261 -3.93117704 0.29669261 0 0 Z " fill="#F4F4F4" transform="translate(286.3125,306.75)"/>
<path d="M0 0 C3.625 0.375 3.625 0.375 6.0625 2.25 C7.625 4.375 7.625 4.375 7.625 6.375 C3.005 6.375 -1.615 6.375 -6.375 6.375 C-4.91785714 0.54642857 -4.91785714 0.54642857 0 0 Z " fill="#F4F4F4" transform="translate(96.375,306.625)"/>
</svg>
