<?xml version="1.0" encoding="UTF-8"?>
<svg version="1.1" xmlns="http://www.w3.org/2000/svg" width="500" height="500">
<path d="M0 0 C0 25.41 0 50.82 0 77 C25.41 77 50.82 77 77 77 C75.60852131 96.48070161 71.3953248 113.33680496 58 128 C56.87464844 129.24523437 56.87464844 129.24523437 55.7265625 130.515625 C43.62758342 143.26344523 26.70272798 152.41939929 9 154 C5.7 154 2.4 154 -1 154 C-1 128.92 -1 103.84 -1 78 C-26.08 78 -51.16 78 -77 78 C-77 56.56636724 -69.57705148 37.75659994 -54.8125 22.1875 C-39.84115866 8.00961887 -20.69636068 0 0 0 Z " fill="#3254F0" transform="translate(250,103)"/>
<path d="M0 0 C4.33226002 3.54457638 6.09262844 6.88021319 8 12 C8.350625 10.80375 8.70125 9.6075 9.0625 8.375 C10.9102605 3.55884647 13.43594609 0.46935753 18 -2 C22.97103033 -3.40006867 26.73017614 -3.49010745 31.5625 -1.625 C34 0 34 0 35 1 C35.33 0.01 35.66 -0.98 36 -2 C39.96 -2 43.92 -2 48 -2 C48 10.21 48 22.42 48 35 C44.04 35 40.08 35 36 35 C35.67 34.34 35.34 33.68 35 33 C34.195625 33.495 33.39125 33.99 32.5625 34.5 C27.61656157 36.58250039 23.16971335 37.04414087 18.0078125 35.34375 C13.17582716 32.9381264 11.24254363 29.83009397 9 25 C8.505 23.02 8.505 23.02 8 21 C-0.25 21 -8.5 21 -17 21 C-15.68 22.32 -14.36 23.64 -13 25 C-9.60845705 24.83849795 -8.41703243 24.41703243 -6 22 C-2.9609375 21.8046875 -2.9609375 21.8046875 0.625 21.875 C2.40777344 21.90207031 2.40777344 21.90207031 4.2265625 21.9296875 C5.14179687 21.95289063 6.05703125 21.97609375 7 22 C5.11385475 27.97142055 3.44500597 31.58189653 -2.125 34.8125 C-7.37242496 36.76764335 -12.93540675 36.97772615 -18.27734375 35.2734375 C-23.45498877 32.90155543 -26.65245301 29.90992031 -29.078125 24.671875 C-31.11590662 18.76576218 -30.943224 12.24997617 -28.3125 6.5625 C-25.77032135 2.20065664 -22.80346246 -0.19846113 -18.1875 -2.25 C-11.24383171 -3.8838043 -6.27925251 -3.43581741 0 0 Z M-15.75 9.4375 C-18.10996686 11.556887 -18.10996686 11.556887 -18 13 C-13.71 13 -9.42 13 -5 13 C-5.5739739 8.79819816 -5.5739739 8.79819816 -9 7 C-13.11356307 6.55779499 -13.11356307 6.55779499 -15.75 9.4375 Z M23.25 9.4375 C20.3891034 12.69574335 20.32449805 14.64615722 20.58203125 18.87109375 C20.90378046 21.19087756 20.90378046 21.19087756 22.625 23.5625 C25.72548536 25.43910956 27.43283597 25.59452734 31 25 C33.94427735 22.93104835 34.84332955 21.49090073 35.9375 18.0625 C36.0128328 14.37119268 35.24574926 12.8873919 33 10 C29.20195602 7.46797068 27.30840741 7.31605976 23.25 9.4375 Z " fill="#010101" transform="translate(108,300)"/>
<path d="M0 0 C4.64971786 2.66836057 7.19663163 7.01615117 8.82421875 12.046875 C9.04335938 11.52738281 9.2625 11.00789063 9.48828125 10.47265625 C11.78441491 5.42302896 13.95936716 2.01983986 18.82421875 -0.953125 C25.30109332 -2.67672303 29.98824858 -2.12484792 35.82421875 1.046875 C36.15421875 0.386875 36.48421875 -0.273125 36.82421875 -0.953125 C40.78421875 -0.953125 44.74421875 -0.953125 48.82421875 -0.953125 C48.82421875 11.256875 48.82421875 23.466875 48.82421875 36.046875 C44.86421875 36.046875 40.90421875 36.046875 36.82421875 36.046875 C36.49421875 35.386875 36.16421875 34.726875 35.82421875 34.046875 C34.99921875 34.541875 34.17421875 35.036875 33.32421875 35.546875 C28.04818564 37.80803205 24.0365144 37.82768523 18.63671875 35.921875 C15.21185981 33.63863571 13.12575428 31.46629922 10.82421875 28.046875 C10.32921875 24.581875 10.32921875 24.581875 9.82421875 21.046875 C1.24421875 21.046875 -7.33578125 21.046875 -16.17578125 21.046875 C-15.51578125 22.366875 -14.85578125 23.686875 -14.17578125 25.046875 C-11.26573222 26.12910866 -11.26573222 26.12910866 -8.17578125 26.046875 C-7.75554687 25.55703125 -7.3353125 25.0671875 -6.90234375 24.5625 C-4.25412534 22.23781959 -1.92819083 22.75719947 1.51171875 22.859375 C2.69121094 22.88644531 3.87070312 22.91351563 5.0859375 22.94140625 C5.98957031 22.97621094 6.89320313 23.01101563 7.82421875 23.046875 C7.06655572 27.80241957 5.39848129 30.81611302 1.82421875 34.046875 C-3.68800645 37.28936041 -8.92556696 37.92718687 -15.17578125 37.046875 C-20.47418642 35.35647472 -24.20951317 32.83853883 -27.17578125 28.046875 C-30.00875238 21.81433852 -30.02954579 15.74297356 -27.98828125 9.296875 C-21.9631774 -1.50675949 -11.16698663 -4.65108284 0 0 Z M-16.17578125 11.046875 C-16.17578125 12.036875 -16.17578125 13.026875 -16.17578125 14.046875 C-12.21578125 14.046875 -8.25578125 14.046875 -4.17578125 14.046875 C-4.74975515 9.84507316 -4.74975515 9.84507316 -8.17578125 8.046875 C-12.38753077 8.046875 -13.26942975 8.24432177 -16.17578125 11.046875 Z M23.88671875 11.046875 C21.31637425 14.7855579 21.10828917 16.59220204 21.82421875 21.046875 C23.28054999 24.07626194 23.28054999 24.07626194 25.82421875 26.046875 C29.1475652 26.60076607 31.05521049 26.37941911 34.13671875 25.046875 C36.67797073 22.0350208 36.99518766 18.86022494 36.82421875 15.046875 C36.02993916 12.02737347 36.02993916 12.02737347 33.82421875 10.046875 C29.44362934 8.58667853 27.74703497 8.4185746 23.88671875 11.046875 Z " fill="#010101" transform="translate(297.17578125,298.953125)"/>
<path d="M0 0 C5.85568214 3.88706951 9.44933581 8.99791285 11.01171875 15.8984375 C11.94085066 24.93635696 10.00300452 31.02374959 5.32421875 38.6484375 C-0.25084089 44.07281986 -6.56775031 46.55839666 -14.23828125 47.1484375 C-21.91637389 46.63656466 -27.67164175 44.25045738 -33.2578125 38.8984375 C-38.62655881 32.69347562 -39.71671061 26.19545535 -39.43359375 18.1171875 C-38.40671985 10.69487086 -34.88759418 4.64508416 -28.94140625 0.08203125 C-19.49444352 -5.64282816 -9.54476113 -5.28806019 0 0 Z " fill="#3254EC" transform="translate(227.98828125,194.1015625)"/>
<path d="M0 0 C5.69342889 5.69342889 9.12892936 12.3626516 9.37890625 20.46484375 C8.97209203 27.47930711 6.43130676 34.20011054 1.4140625 39.20703125 C-5.79878521 44.88611249 -12.64253806 46.12422735 -21.6875 45.3125 C-27.75766718 44.05405071 -32.60109121 40.94860337 -36.6875 36.3125 C-41.10139337 29.37064951 -42.88232017 22.2055961 -41.2265625 14.0390625 C-39.1649523 6.93257087 -35.4446143 1.75855127 -29.0625 -2.0625 C-19.34420762 -6.74167781 -9.01163391 -5.65846781 0 0 Z " fill="#3254EF" transform="translate(302.6875,121.6875)"/>
<path d="M0 0 C0.845625 0.495 1.69125 0.99 2.5625 1.5 C2.8925 0.84 3.2225 0.18 3.5625 -0.5 C7.5225 -0.5 11.4825 -0.5 15.5625 -0.5 C15.66181654 5.47732771 15.73417995 11.4541688 15.78222656 17.43212891 C15.80226836 19.46313857 15.82950947 21.49409106 15.86425781 23.52490234 C15.91310414 26.45424556 15.93554343 29.382822 15.953125 32.3125 C15.97377014 33.21178223 15.99441528 34.11106445 16.01568604 35.03759766 C16.01776276 40.95099504 15.0687147 45.62623198 11.5625 50.5 C6.90351267 54.49085232 1.60459714 55.59108689 -4.4375 55.5 C-10.2672579 54.87366237 -14.91217333 53.37885143 -19.4375 49.5 C-21.78262613 45.74779819 -22.4375 43.97038145 -22.4375 39.5 C-20.52208862 39.39158049 -18.60490227 39.31421921 -16.6875 39.25 C-15.62015625 39.20359375 -14.5528125 39.1571875 -13.453125 39.109375 C-9.748969 39.58918795 -8.91287279 40.83502419 -6.4375 43.5 C-1.38057101 43.35718492 -1.38057101 43.35718492 2.5625 40.5 C2.72931109 37.41652174 2.72931109 37.41652174 2.5625 34.5 C1.923125 34.995 1.28375 35.49 0.625 36 C-3.5091258 38.02487794 -6.91091053 38.08381808 -11.4375 37.5 C-16.95801451 35.52094763 -20.000701 32.50280655 -22.5234375 27.23046875 C-24.64678161 20.88765877 -24.58114338 13.0746595 -21.8125 6.9375 C-17.14061193 -0.94319376 -8.2760074 -3.61134868 0 0 Z M-10.4375 12.5 C-11.52495801 16.99482645 -12.01186819 19.21450929 -10.125 23.4375 C-7.93984247 26.1082481 -6.99035644 26.42788829 -3.5625 26.875 C-0.31304249 26.78149048 -0.31304249 26.78149048 1.9375 24.4375 C3.99033478 20.72660635 4.2349224 18.6839616 3.5625 14.5 C1.24924897 11.39363432 -0.1510241 9.75101969 -4 9 C-7.07279335 9.63031658 -8.35243193 10.11706506 -10.4375 12.5 Z " fill="#010101" transform="translate(440.4375,298.5)"/>
<path d="M0 0 C3.0625 2.0625 3.0625 2.0625 5 4 C5.515625 3.731875 6.03125 3.46375 6.5625 3.1875 C7.366875 2.795625 8.17125 2.40375 9 2 C10.051875 1.443125 11.10375 0.88625 12.1875 0.3125 C16.5551968 -1.53790058 20.46474416 -1.10823921 25 0 C29.19474925 1.82380402 31.04112694 3.88636657 33 8 C33.90141833 11.63298902 34.11763625 15.00202129 34.09765625 18.73828125 C34.09443359 19.80498047 34.09121094 20.87167969 34.08789062 21.97070312 C34.07532227 23.62489258 34.07532227 23.62489258 34.0625 25.3125 C34.05798828 26.43462891 34.05347656 27.55675781 34.04882812 28.71289062 C34.03707326 31.47528336 34.01913869 34.23764856 34 37 C29.71 37 25.42 37 21 37 C20.94392578 34.43605469 20.94392578 34.43605469 20.88671875 31.8203125 C20.82107777 29.58851903 20.7546298 27.35674919 20.6875 25.125 C20.65366211 23.43310547 20.65366211 23.43310547 20.61914062 21.70703125 C20.58369141 20.63066406 20.54824219 19.55429687 20.51171875 18.4453125 C20.48553467 17.45031738 20.45935059 16.45532227 20.43237305 15.43017578 C20.21834839 14.22723877 20.21834839 14.22723877 20 13 C17.17537932 10.69212888 17.17537932 10.69212888 13.9375 11.125 C10.94836977 11.67402371 10.94836977 11.67402371 9.84228516 13.74316406 C8.90085272 16.26565722 8.68427092 18.2965949 8.5859375 20.984375 C8.54726562 21.91894531 8.50859375 22.85351562 8.46875 23.81640625 C8.42234375 25.26853516 8.42234375 25.26853516 8.375 26.75 C8.33632812 27.73355469 8.29765625 28.71710938 8.2578125 29.73046875 C8.1637203 32.15334289 8.08077848 34.57664545 8 37 C4.04 37 0.08 37 -4 37 C-4.03738281 35.37449219 -4.07476562 33.74898438 -4.11328125 32.07421875 C-4.17893106 29.94528904 -4.24537874 27.81638383 -4.3125 25.6875 C-4.33505859 24.61564453 -4.35761719 23.54378906 -4.38085938 22.43945312 C-4.4340332 20.89741211 -4.4340332 20.89741211 -4.48828125 19.32421875 C-4.51446533 18.37635498 -4.54064941 17.42849121 -4.56762695 16.4519043 C-5.06831826 13.61258028 -5.69754574 12.68782045 -8 11 C-10.81375005 10.57793749 -12.29789594 10.48532068 -14.62426758 12.19067383 C-16.47606562 14.62610866 -16.42772405 16.28361067 -16.51171875 19.32421875 C-16.54716797 20.35224609 -16.58261719 21.38027344 -16.61914062 22.43945312 C-16.65297852 24.04723633 -16.65297852 24.04723633 -16.6875 25.6875 C-16.72166016 26.77095703 -16.75582031 27.85441406 -16.79101562 28.97070312 C-16.8735375 31.64676977 -16.93844386 34.32336903 -17 37 C-20.96 37 -24.92 37 -29 37 C-29 24.79 -29 12.58 -29 0 C-25.04 0 -21.08 0 -17 0 C-16.67 0.66 -16.34 1.32 -16 2 C-15.030625 1.484375 -14.06125 0.96875 -13.0625 0.4375 C-8.5950598 -1.46546641 -4.63948088 -1.31813289 0 0 Z " fill="#010101" transform="translate(190,298)"/>
<path d="M0 0 C4.07592745 2.23022446 6.24910972 4.68571945 8.3125 8.8125 C8.39793895 10.91778933 8.41964725 13.02581157 8.41015625 15.1328125 C8.40693359 16.38964844 8.40371094 17.64648438 8.40039062 18.94140625 C8.38782227 20.91947266 8.38782227 20.91947266 8.375 22.9375 C8.36998489 24.27734211 8.36542201 25.617186 8.36132812 26.95703125 C8.34951086 30.24223206 8.33303617 33.52734397 8.3125 36.8125 C4.3525 36.8125 0.3925 36.8125 -3.6875 36.8125 C-3.73648437 35.18699219 -3.78546875 33.56148438 -3.8359375 31.88671875 C-3.91096565 29.75779508 -3.98651346 27.62888968 -4.0625 25.5 C-4.0934375 24.42814453 -4.124375 23.35628906 -4.15625 22.25195312 C-4.19492187 21.22392578 -4.23359375 20.19589844 -4.2734375 19.13671875 C-4.3048584 18.18885498 -4.3362793 17.24099121 -4.36865234 16.2644043 C-4.5364051 13.5594731 -4.5364051 13.5594731 -6.6875 10.8125 C-10.76239067 10.28887434 -10.76239067 10.28887434 -14.34692383 12.00317383 C-16.15290316 14.44063747 -16.11589247 16.12030734 -16.19921875 19.13671875 C-16.23466797 20.16474609 -16.27011719 21.19277344 -16.30664062 22.25195312 C-16.34047852 23.85973633 -16.34047852 23.85973633 -16.375 25.5 C-16.40916016 26.58345703 -16.44332031 27.66691406 -16.47851562 28.78320312 C-16.5610375 31.45926977 -16.62594386 34.13586903 -16.6875 36.8125 C-20.6475 36.8125 -24.6075 36.8125 -28.6875 36.8125 C-28.6875 24.6025 -28.6875 12.3925 -28.6875 -0.1875 C-24.7275 -0.1875 -20.7675 -0.1875 -16.6875 -0.1875 C-16.3575 0.4725 -16.0275 1.1325 -15.6875 1.8125 C-15.006875 1.3175 -14.32625 0.8225 -13.625 0.3125 C-8.76548048 -2.16895678 -5.10302172 -1.64334598 0 0 Z " fill="#010101" transform="translate(405.6875,298.1875)"/>
<path d="M0 0 C4.29 0 8.58 0 13 0 C14.33819498 2.6226232 15.6707151 5.24786599 17 7.875 C17.3815625 8.62136719 17.763125 9.36773437 18.15625 10.13671875 C18.5171875 10.85214844 18.878125 11.56757813 19.25 12.3046875 C19.58515625 12.96452637 19.9203125 13.62436523 20.265625 14.30419922 C21 16 21 16 21 18 C21.66 18 22.32 18 23 18 C23.10183594 17.31550781 23.20367187 16.63101562 23.30859375 15.92578125 C24.63881888 10.2967495 27.52994721 5.20287716 30 0 C34.62 0 39.24 0 44 0 C42.52385908 4.42842277 41.26264716 7.56663187 38.99609375 11.4921875 C29.54114344 28.23047566 29.54114344 28.23047566 28 47 C24.04 47 20.08 47 16 47 C16.103125 45.06125 16.20625 43.1225 16.3125 41.125 C16.12031599 27.87980209 7.16599353 13.7489903 0 3 C0 2.01 0 1.02 0 0 Z " fill="#010101" transform="translate(225,288)"/>
<path d="M0 0 C12.21 0 24.42 0 37 0 C37 3.3 37 6.6 37 10 C33.04 10 29.08 10 25 10 C25 22.21 25 34.42 25 47 C20.71 47 16.42 47 12 47 C12 34.79 12 22.58 12 10 C8.04 10 4.08 10 0 10 C0 6.7 0 3.4 0 0 Z " fill="#000000" transform="translate(41,288)"/>
<path d="M0 0 C0 4.29 0 8.58 0 13 C-2.27864583 13.42317708 -4.55729167 13.84635417 -6.8359375 14.26953125 C-9.35820641 14.87544942 -9.35820641 14.87544942 -11 18 C-11.3650791 20.22131423 -11.3650791 20.22131423 -11.4140625 22.66796875 C-11.47207031 24.00698242 -11.47207031 24.00698242 -11.53125 25.37304688 C-11.57765625 26.76620117 -11.57765625 26.76620117 -11.625 28.1875 C-11.68300781 29.59805664 -11.68300781 29.59805664 -11.7421875 31.03710938 C-11.83642674 33.35775066 -11.91930123 35.67884841 -12 38 C-15.96 38 -19.92 38 -24 38 C-24 25.79 -24 13.58 -24 1 C-20.04 1 -16.08 1 -12 1 C-11.67 1.99 -11.34 2.98 -11 4 C-10.13375 3.2884375 -10.13375 3.2884375 -9.25 2.5625 C-6.06948824 0.35381128 -3.83888288 0 0 0 Z " fill="#010101" transform="translate(375,297)"/>
<path d="M0 0 C0.99 0 1.98 0 3 0 C3 25.41 3 50.82 3 77 C28.41 77 53.82 77 80 77 C79.67 81.62 79.34 86.24 79 91 C78.67 91 78.34 91 78 91 C78 86.71 78 82.42 78 78 C53.58 78 29.16 78 4 78 C4 102.42 4 126.84 4 152 C12.27688886 152.01037973 12.27688886 152.01037973 20 150 C21.99960012 149.960008 24.00047242 149.95653201 26 150 C23.00919026 151.99387316 21.39648216 152.49790395 17.9375 153.125 C17.05964844 153.29257812 16.18179688 153.46015625 15.27734375 153.6328125 C10.87739951 154.12577407 6.42747337 154 2 154 C2 128.92 2 103.84 2 78 C-23.08 78 -48.16 78 -74 78 C-74 66.75 -74 66.75 -73 61 C-72.67 61 -72.34 61 -72 61 C-71.67 65.62 -71.34 70.24 -71 75 C-46.91 75.33 -22.82 75.66 2 76 C2 51.25 2 26.5 2 1 C1.01 0.505 1.01 0.505 0 0 Z " fill="#3B57CD" transform="translate(247,103)"/>
<path d="M0 0 C-0.33 0.99 -0.66 1.98 -1 3 C-2.65 3.33 -4.3 3.66 -6 4 C-6.1546875 5.175625 -6.1546875 5.175625 -6.3125 6.375 C-7 9 -7 9 -10 11 C-9.34 11.33 -8.68 11.66 -8 12 C-8 12.66 -8 13.32 -8 14 C-9.65 14 -11.3 14 -13 14 C-13.33 19.61 -13.66 25.22 -14 31 C-16.87816028 25.24367944 -16.61679751 20.47710557 -14.875 14.4375 C-12.67047716 8.41665697 -7.19345999 0 0 0 Z " fill="#3853D2" transform="translate(277,119)"/>
<path d="M0 0 C4.85128543 2.1174668 8.63682726 4.68919667 10.625 9.75 C8.645 9.09 6.665 8.43 4.625 7.75 C4.625 7.09 4.625 6.43 4.625 5.75 C3.635 5.42 2.645 5.09 1.625 4.75 C1.15537842 4.2449292 0.68575684 3.7398584 0.2019043 3.21948242 C-1.80413236 1.350101 -2.89766694 1.33430259 -5.60546875 1.23828125 C-6.80913086 1.18510742 -6.80913086 1.18510742 -8.03710938 1.13085938 C-8.87048828 1.10830078 -9.70386719 1.08574219 -10.5625 1.0625 C-11.8299707 1.01125977 -11.8299707 1.01125977 -13.12304688 0.95898438 C-15.20656649 0.87658529 -17.29076216 0.81161355 -19.375 0.75 C-13.562924 -2.65848382 -6.23962576 -2.17082037 0 0 Z " fill="#3B53C5" transform="translate(296.375,118.25)"/>
<path d="M0 0 C0.66 0.33 1.32 0.66 2 1 C1.67 1.99 1.34 2.98 1 4 C1 4.99 1 5.98 1 7 C-0.65 6.67 -2.3 6.34 -4 6 C-4.598125 6.969375 -5.19625 7.93875 -5.8125 8.9375 C-8 12 -8 12 -11 13 C-11 13.66 -11 14.32 -11 15 C-12.65 15.66 -14.3 16.32 -16 17 C-14.43122496 13.20144921 -12.03476878 10.79977997 -9.125 7.9375 C-8.26132813 7.08027344 -7.39765625 6.22304687 -6.5078125 5.33984375 C-4.41510391 3.387301 -2.33074012 1.65319939 0 0 Z " fill="#3554D4" transform="translate(205,117)"/>
<path d="M0 0 C2.6481271 3.97219065 3.08669441 7.26070562 3 12 C2.25552688 15.43602977 1.21783984 18.70426394 0 22 C-1.05859375 20.15234375 -1.05859375 20.15234375 -2 18 C-1.35561283 16.32459336 -0.68753301 14.65816784 0 13 C-0.31595508 11.32995171 -0.65179959 9.66362417 -1 8 C-0.80848575 5.29864106 -0.40898598 2.68113032 0 0 Z " fill="#3351D7" transform="translate(309,132)"/>
<path d="M0 0 C0.66 0 1.32 0 2 0 C1.34580901 5.06998019 -0.8546409 9.41990777 -3 14 C-4.37095624 10.30962722 -3.60010967 8.29116165 -2.0625 4.75 C-1.68222656 3.85796875 -1.30195313 2.9659375 -0.91015625 2.046875 C-0.60980469 1.37140625 -0.30945313 0.6959375 0 0 Z " fill="#3952CC" transform="translate(321,203)"/>
<path d="M0 0 C2.625 -0.1875 2.625 -0.1875 5 0 C3.02 2.31 1.04 4.62 -1 7 C-1.33 5.68 -1.66 4.36 -2 3 C-1.34 2.01 -0.68 1.02 0 0 Z " fill="#3851D3" transform="translate(299,234)"/>
<path d="M0 0 C0.99 0.33 1.98 0.66 3 1 C0.69 3.64 -1.62 6.28 -4 9 C-4.33 7.68 -4.66 6.36 -5 5 C-4.34 5 -3.68 5 -3 5 C-2.67 4.34 -2.34 3.68 -2 3 C-1.34 2.01 -0.68 1.02 0 0 Z " fill="#3752C9" transform="translate(310,224)"/>
<path d="M0 0 C0 3 0 3 -1 5 C0.32 5.33 1.64 5.66 3 6 C0.36 6.66 -2.28 7.32 -5 8 C-3.8141763 4.62496331 -2.72426311 2.35277269 0 0 Z " fill="#3753D4" transform="translate(197,196)"/>
<path d="M0 0 C0 3.9519815 -1.37176172 5.14648416 -4 8 C-4.99 8.33 -5.98 8.66 -7 9 C-6.67 7.68 -6.34 6.36 -6 5 C-5.01 5 -4.02 5 -3 5 C-2.814375 4.0409375 -2.814375 4.0409375 -2.625 3.0625 C-2.41875 2.381875 -2.2125 1.70125 -2 1 C-1.34 0.67 -0.68 0.34 0 0 Z " fill="#3355D0" transform="translate(307,154)"/>
<path d="M0 0 C3.78383679 0.92493788 5.56693694 1.39371171 7.875 4.625 C8.431875 5.800625 8.431875 5.800625 9 7 C7.02 6.34 5.04 5.68 3 5 C3 4.34 3 3.68 3 3 C2.01 2.67 1.02 2.34 0 2 C0 1.34 0 0.68 0 0 Z " fill="#3454D6" transform="translate(298,121)"/>
<path d="M0 0 C2.475 0.99 2.475 0.99 5 2 C4.01 2.99 3.02 3.98 2 5 C1.01 4.67 0.02 4.34 -1 4 C-0.67 2.68 -0.34 1.36 0 0 Z " fill="#3551DC" transform="translate(287,242)"/>
<path d="M0 0 C2.31 0 4.62 0 7 0 C7 0.66 7 1.32 7 2 C4.36 2.33 1.72 2.66 -1 3 C-0.67 2.01 -0.34 1.02 0 0 Z " fill="#3752DF" transform="translate(237,104)"/>
<path d="M0 0 C1.98 0 3.96 0 6 0 C5.01 0.495 5.01 0.495 4 1 C4.33 2.65 4.66 4.3 5 6 C3.2925002 4.71937515 1.62626404 3.38232443 0 2 C0 1.34 0 0.68 0 0 Z " fill="#3850D5" transform="translate(193,229)"/>
<path d="" fill="#FFFFFF" transform="translate(0,0)"/>
<path d="" fill="#FFFFFF" transform="translate(0,0)"/>
<path d="" fill="#FFFFFF" transform="translate(0,0)"/>
<path d="" fill="#FFFFFF" transform="translate(0,0)"/>
<path d="" fill="#FFFFFF" transform="translate(0,0)"/>
<path d="" fill="#FFFFFF" transform="translate(0,0)"/>
<path d="" fill="#FFFFFF" transform="translate(0,0)"/>
<path d="" fill="#FFFFFF" transform="translate(0,0)"/>
<path d="" fill="#FFFFFF" transform="translate(0,0)"/>
<path d="" fill="#FFFFFF" transform="translate(0,0)"/>
<path d="" fill="#FFFFFF" transform="translate(0,0)"/>
<path d="" fill="#FFFFFF" transform="translate(0,0)"/>
<path d="" fill="#FFFFFF" transform="translate(0,0)"/>
<path d="" fill="#FFFFFF" transform="translate(0,0)"/>
<path d="" fill="#FFFFFF" transform="translate(0,0)"/>
<path d="" fill="#FFFFFF" transform="translate(0,0)"/>
<path d="" fill="#FFFFFF" transform="translate(0,0)"/>
<path d="" fill="#FFFFFF" transform="translate(0,0)"/>
<path d="" fill="#FFFFFF" transform="translate(0,0)"/>
<path d="" fill="#FFFFFF" transform="translate(0,0)"/>
<path d="" fill="#FFFFFF" transform="translate(0,0)"/>
<path d="" fill="#FFFFFF" transform="translate(0,0)"/>
<path d="" fill="#FFFFFF" transform="translate(0,0)"/>
<path d="" fill="#FFFFFF" transform="translate(0,0)"/>
<path d="" fill="#FFFFFF" transform="translate(0,0)"/>
<path d="" fill="#FFFFFF" transform="translate(0,0)"/>
<path d="" fill="#FFFFFF" transform="translate(0,0)"/>
<path d="" fill="#FFFFFF" transform="translate(0,0)"/>
<path d="" fill="#FFFFFF" transform="translate(0,0)"/>
<path d="" fill="#FFFFFF" transform="translate(0,0)"/>
<path d="" fill="#FFFFFF" transform="translate(0,0)"/>
<path d="" fill="#FFFFFF" transform="translate(0,0)"/>
<path d="" fill="#FFFFFF" transform="translate(0,0)"/>
<path d="" fill="#FFFFFF" transform="translate(0,0)"/>
<path d="" fill="#FFFFFF" transform="translate(0,0)"/>
<path d="" fill="#FFFFFF" transform="translate(0,0)"/>
<path d="" fill="#FFFFFF" transform="translate(0,0)"/>
<path d="" fill="#FFFFFF" transform="translate(0,0)"/>
<path d="" fill="#FFFFFF" transform="translate(0,0)"/>
<path d="" fill="#FFFFFF" transform="translate(0,0)"/>
<path d="" fill="#FFFFFF" transform="translate(0,0)"/>
<path d="" fill="#FFFFFF" transform="translate(0,0)"/>
<path d="" fill="#FFFFFF" transform="translate(0,0)"/>
<path d="" fill="#FFFFFF" transform="translate(0,0)"/>
<path d="" fill="#FFFFFF" transform="translate(0,0)"/>
<path d="" fill="#FFFFFF" transform="translate(0,0)"/>
<path d="" fill="#FFFFFF" transform="translate(0,0)"/>
<path d="" fill="#FFFFFF" transform="translate(0,0)"/>
<path d="" fill="#FFFFFF" transform="translate(0,0)"/>
<path d="" fill="#FFFFFF" transform="translate(0,0)"/>
<path d="" fill="#FFFFFF" transform="translate(0,0)"/>
<path d="" fill="#FFFFFF" transform="translate(0,0)"/>
<path d="" fill="#FFFFFF" transform="translate(0,0)"/>
<path d="" fill="#FFFFFF" transform="translate(0,0)"/>
<path d="" fill="#FFFFFF" transform="translate(0,0)"/>
<path d="" fill="#FFFFFF" transform="translate(0,0)"/>
<path d="" fill="#FFFFFF" transform="translate(0,0)"/>
<path d="" fill="#FFFFFF" transform="translate(0,0)"/>
<path d="" fill="#FFFFFF" transform="translate(0,0)"/>
<path d="" fill="#FFFFFF" transform="translate(0,0)"/>
<path d="" fill="#FFFFFF" transform="translate(0,0)"/>
<path d="" fill="#FFFFFF" transform="translate(0,0)"/>
<path d="" fill="#FFFFFF" transform="translate(0,0)"/>
<path d="" fill="#FFFFFF" transform="translate(0,0)"/>
<path d="" fill="#FFFFFF" transform="translate(0,0)"/>
<path d="" fill="#FFFFFF" transform="translate(0,0)"/>
</svg>
